<svg xmlns="http://www.w3.org/2000/svg" viewBox="0 0 700 820" fill="none">
  <defs>
    <linearGradient id="mapFill" x1="0" y1="0" x2="1" y2="1">
      <stop offset="0%" stop-color="#f1eee4"/>
      <stop offset="100%" stop-color="#e6e1d5"/>
    </linearGradient>
    <filter id="shadow" x="-20%" y="-20%" width="140%" height="140%">
      <feDropShadow dx="0" dy="6" stdDeviation="8" flood-color="#000000" flood-opacity="0.18"/>
    </filter>
  </defs>

  <path filter="url(#shadow)" fill="url(#mapFill)" stroke="#cfc8ba" stroke-width="2"
    d="M285 35l36 14 24 30 44 4 22 26 13 36 26 20 36 2 40 20 17 37-7 40 35 35 11 40-18 37-39 17-36-8-21 26-37 4-22 24-31 8-32 39-35 0-18 17-20 36-14 42-27 25-18 37-24 11-33-11-22-28-9-44-18-25-34-18-42 3-37-18-8-25 6-36 22-35-28-36-6-48 18-39-8-28 22-29 37-18 3-28 37-35 44-11 13-25 41-22z"/>

  <path fill="#d8ded7" stroke="#cfd5ce" stroke-width="1.5"
    d="M520 286l30 10 34-9 19 26-8 31-24 12-24-7-21 25-22 2 8-22-16-16 24-26z"/>

  <path fill="#d8ded7" stroke="#cfd5ce" stroke-width="1.5"
    d="M150 170l38 10 17 32-12 28-35 7-30-16-5-26 27-35z"/>

  <path fill="#d8ded7" stroke="#cfd5ce" stroke-width="1.5"
    d="M92 438l33 8 13 26-10 28-32 5-25-20 2-26 19-21z"/>

  <path fill="#e8e4da" stroke="#d7d1c4" stroke-width="1"
    d="M200 610l52 16 43-13 36 14 36-11 30 17 9 34-17 31-28 10-34-7-28 12-40-9-24-23-25-31-10-26z"/>

  <circle cx="612" cy="672" r="9" fill="#f6f2e8" stroke="#d7d1c4"/>
  <circle cx="624" cy="694" r="8" fill="#f6f2e8" stroke="#d7d1c4"/>
  <circle cx="606" cy="714" r="8" fill="#f6f2e8" stroke="#d7d1c4"/>

  <circle cx="110" cy="730" r="7" fill="#f6f2e8" stroke="#d7d1c4"/>
  <circle cx="98" cy="748" r="7" fill="#f6f2e8" stroke="#d7d1c4"/>
</svg>
